<svg xmlns="http://www.w3.org/2000/svg" viewBox="0 0 511 511"  xmlns:v="https://vecta.io/nano"><path d="M502.992 319.336C508.268 298.73 511 277.327 511 255.5c0-68.247-26.577-132.408-74.834-180.666-25.944-25.944-56.5-45.6-89.8-58.26-.092-.038-.186-.07-.28-.104C317.534 5.66 286.954 0 255.5 0 187.253 0 123.092 26.577 74.834 74.834S0 187.253 0 255.5s26.577 132.408 74.834 180.666S187.253 511 255.5 511s132.408-26.577 180.666-74.834c31.825-31.826 54.214-70.57 65.776-112.84.668-1.122 1.058-2.427 1.058-3.827 0-.055-.007-.1-.008-.164zM76.834 94.503A7.47 7.47 0 0 0 79.5 95h72a7.5 7.5 0 1 0 0-15H91.08c31.564-29.62 69.773-49.8 111.192-59.122L234.6 53.205c1.464 1.465 3.384 2.197 5.303 2.197a7.47 7.47 0 0 0 5.303-2.197 7.5 7.5 0 0 0 0-10.606L220.17 17.564C231.767 15.867 243.567 15 255.5 15a245.64 245.64 0 0 1 16.5.567V31.5a7.5 7.5 0 1 0 15 0V17.046c14.608 1.9 28.906 5.115 42.755 9.592l-15.96 15.96a7.5 7.5 0 0 0 0 10.606c1.464 1.465 3.384 2.197 5.303 2.197a7.47 7.47 0 0 0 5.303-2.197l20.923-20.923C372.647 43.272 397.9 59.338 419.92 80H407.5a7.5 7.5 0 1 0 0 15h24a7.47 7.47 0 0 0 2.666-.497C474.13 138.75 496 195.442 496 255.5c0 19.282-2.27 38.212-6.653 56.5h-81.522c-7.828-23.508-12.077-50.095-12.828-79.963 1.9 1.078 3.945 2.585 6.023 4.63 7.486 7.368 11.667 17.942 11.473 29a7.5 7.5 0 0 0 7.368 7.63 6.03 6.03 0 0 0 .134.001c4.08 0 7.424-3.272 7.497-7.37.233-13.3-4.208-26.123-12.314-35.984 12.74 1.716 22.54 6 28.883 12.755 7.7 8.188 10.345 20.17 7.894 35.613a7.5 7.5 0 0 0 6.231 8.583 7.58 7.58 0 0 0 1.185.094c3.624 0 6.812-2.633 7.398-6.325 3.17-19.975-.9-36.653-11.773-48.232-11.337-12.074-29.674-18.307-53.517-18.328 11.098-11.945 31.786-23.824 45.182-22.52 5.733.557 8.547 3.532 9.407 9.947a7.5 7.5 0 0 0 8.431 6.436c4.105-.55 6.987-4.325 6.437-8.43-1.785-13.306-10.104-21.647-22.823-22.883-15.703-1.528-37.254 8.36-52.118 21.66 2.448-14.256 8.643-26.73 16.3-31.522 3.853-2.414 7.604-2.6 11.805-.554a7.5 7.5 0 0 0 6.544-13.497c-8.788-4.26-18.133-3.785-26.313 1.34-6.87 4.305-12.748 11.926-17.02 21.4-4.155-8.95-9.824-16.2-16.516-20.576-8.182-5.35-17.567-6.163-26.428-2.286-3.794 1.66-5.525 6.083-3.865 9.877a7.5 7.5 0 0 0 9.877 3.865c4.244-1.857 8.237-1.498 12.205 1.097 7.5 4.906 13.462 16.503 15.983 29.963-11.028-9.746-25.54-16.45-38.485-16.48h-.1c-15.083 0-26.34 8.558-31.7 24.105a7.5 7.5 0 1 0 14.181 4.89c3.247-9.417 8.978-13.995 17.522-13.995h.06c12.37.03 26.437 9.006 34.5 18.952-18.48 1.2-33.945 7.046-46.087 17.455-12.857 11.02-21.37 26.886-24.62 45.88a7.5 7.5 0 0 0 6.128 8.657c.428.073.853.108 1.273.108 3.587 0 6.76-2.582 7.384-6.236 2.598-15.2 10.95-37.944 37.152-47.08-5.737 8.543-8.73 18.882-8.535 29.948a7.5 7.5 0 0 0 7.497 7.368h.134c4.142-.073 7.44-3.5 7.368-7.63-.246-14.015 6.318-22.605 10.253-26.48 2.54-2.5 5.116-4.222 7.496-5.348.678 29.772 4.673 56.53 12.048 80.458H287v-96.5a7.5 7.5 0 1 0-15 0V312h-17.026c.01-.166.025-.33.025-.5 0-11.854-6.636-21.44-18.205-26.3-6.887-2.893-14.776-3.864-22.35-3.125 5.393-5.533 12-9.853 18.2-10.542 4.295-.48 6.24 1.208 7.322 2.52 2.637 3.193 7.364 3.646 10.56 1.008a7.5 7.5 0 0 0 1.008-10.56c-4.958-6.004-12.253-8.803-20.55-7.876-4.744.53-9.64 2.25-14.374 4.896 1.738-10.35 1.42-20.17-3-26.23-3.512-4.8-8.982-6.87-15.412-5.828-4.088.663-6.866 4.514-6.204 8.603a7.5 7.5 0 0 0 8.603 6.204c.504-.082.812-.076.965-.062 2.127 2.605 1.436 15.345-3.7 30.145-5.985-12.745-16.18-24.7-26.336-28.645-9.7-3.772-18.777-.795-24.93 8.17a7.5 7.5 0 1 0 12.367 8.489c2.47-3.6 4.48-3.7 7.12-2.68 7.74 3.014 16.024 14.83 19.897 25.112-12.862-4.75-25.698-5.43-37.158-1.797-12.617 4-22.618 13.033-28.16 25.437a7.47 7.47 0 0 0-.634 3.56H81.73a88.48 88.48 0 0 0-3.281-3.683c17.06-9.4 30.408-23.2 39.706-41.1 9.976-19.204 15.55-43.717 16.635-72.955.454.377.9.78 1.365 1.228 2.422 2.384 8.035 9.095 7.846 19.888a7.5 7.5 0 0 0 7.367 7.63h.134c4.08 0 7.424-3.272 7.497-7.368.135-7.7-1.784-15.22-5.404-21.7 17.285 5.867 21.17 18.623 22.728 23.758.983 3.237 3.957 5.323 7.174 5.323.722 0 1.456-.105 2.182-.325a7.5 7.5 0 0 0 4.998-9.355c-7.974-26.267-28.806-35.085-48.84-37 8.094-7.427 20.813-14.232 29.086-13.43 2.818.274 4.564 1.28 5.144 5.605a7.5 7.5 0 0 0 8.431 6.437c4.105-.55 6.987-4.325 6.437-8.43-1.446-10.777-8.2-17.535-18.56-18.54-10.325-1.003-23.957 4.446-34.815 12.457 2.34-7.13 6.2-13.68 11.265-16.992 3.624-2.37 6.114-1.737 7.67-1.056a7.5 7.5 0 1 0 6.012-13.742c-7.134-3.12-14.908-2.324-21.894 2.244-3.995 2.613-7.6 6.358-10.618 10.855-3.12-10.02-7.834-18.642-14.522-22.048-5.3-2.698-11.118-2.075-16.383 1.754a7.5 7.5 0 1 0 8.823 12.131c.414-.3.7-.434.833-.5 3.074 1.365 8.206 13.047 10.3 28.567-11.094-8.674-25.584-14.734-36.43-13.68-10.35 1.006-17.115 7.764-18.56 18.54a7.5 7.5 0 1 0 14.868 1.993c.58-4.326 2.326-5.332 5.144-5.605 8.226-.796 20.84 5.92 28.938 13.3-13.633 1.32-25.16 5.968-33.824 13.745-9.4 8.444-14.66 19.95-15.186 33.277a7.5 7.5 0 0 0 7.198 7.79c.1.004.2.006.3.006a7.5 7.5 0 0 0 7.489-7.204c.362-9.18 3.895-17.032 10.216-22.706 3.328-2.987 7.428-5.344 12.13-7.052-3.578 6.466-5.473 13.93-5.338 21.594a7.5 7.5 0 0 0 7.497 7.368l.134-.001c4.14-.073 7.44-3.5 7.367-7.63-.2-10.792 5.424-17.503 7.846-19.888a20.94 20.94 0 0 1 .94-.858c-2.055 52.37-19 85.85-51.638 102.17a7.48 7.48 0 0 0-1.5 1c-14.63-10.94-32.528-17.598-50.415-17.775A244.99 244.99 0 0 1 15 255.5c0-60.058 21.87-116.75 61.834-160.997zm379.37 293.624c-18.446-17.06-32.654-37.354-42.732-61.127h71.76a237.65 237.65 0 0 1-29.03 61.127zM114.13 383.72c-8.135-8.068-10.37-17.47-13.12-29.13-1.658-7.03-3.373-14.3-6.6-21.987-.796-1.902-1.672-3.77-2.622-5.604h86.08c-5.088 7.56-11.334 15.487-18.386 23.183-16.767 18.296-34.783 31.512-45.362 33.537zM152.984 312h-17.358c3.932-7.193 10.004-12.25 17.72-14.697 4.176-1.323 8.667-1.823 13.345-1.532-5.744 4.088-10.502 9.664-13.706 16.23zm17.908 0c4.292-4.755 9.156-6.8 11.502-7.54 3.136-1.002 5.868-1.123 7.76-.776-.878 2.592-2.05 5.38-3.486 8.317h-15.775zm40.65-14.275c6.33-1.44 13.654-1.126 19.445 1.306 5.98 2.512 9.014 6.708 9.014 12.47 0 .17.014.334.025.5h-11.854c-4.7-5.702-10.512-10.4-16.63-14.275zM85.44 425.56c-35.956-35.955-59.1-81.293-67.206-130.5 25.896 1.213 52.343 19.43 62.346 43.327 2.74 6.544 4.3 13.2 5.828 19.638 3.185 13.502 6.478 27.463 20.227 39.175.017.014.034.026.05.04.053.044.108.085.162.128 8.217 6.857 19.288 7.808 29.07 8.64 7.498.638 15.25 1.297 16.76 4.602 7.707 16.857 20.152 18.286 30.152 19.434 7.24.83 13.493 1.548 19.687 7.054C212.704 446.16 224.567 455 247.5 455h142.42c-39.4 26.66-85.8 41-134.42 41-64.24 0-124.635-25.016-170.06-70.44zm340.118 0c-5.175 5.175-10.553 10.07-16.1 14.708-.626-.17-1.28-.268-1.96-.268h-160c-16.187 0-24.493-4.75-35.017-14.105-9.738-8.656-19.832-9.814-27.942-10.745-9.05-1.04-14.034-1.6-18.22-10.768-5.153-11.27-17.892-12.355-29.132-13.312l-2.313-.2c15.58-9.453 30.15-24.526 35.673-30.552 8.82-9.624 18.048-21.458 25.02-33.317h2.796a28.43 28.43 0 0 1-2.497 6.559c-1.934 3.663-.53 8.2 3.13 10.134a7.46 7.46 0 0 0 3.495.869 7.5 7.5 0 0 0 6.639-4c2.268-4.297 3.766-8.893 4.497-13.562h6.75c5.597 10.014 4.02 19.044 3.3 23.206-.714 4.08 2.014 7.967 6.094 8.682.438.076.873.113 1.303.113 3.575 0 6.74-2.564 7.38-6.207 1.724-9.842.872-18.382-1.713-25.794h42.753c.02.001.025 0 .03 0H397.23c11.2 28.857 27.914 53.206 50.234 73.435a243.1 243.1 0 0 1-21.9 25.125zM287.5 351h40a7.5 7.5 0 1 0 0-15h-40a7.5 7.5 0 1 0 0 15zm7.5 40.5a7.5 7.5 0 0 0-7.5-7.5h-64a7.5 7.5 0 1 0 0 15h64a7.5 7.5 0 0 0 7.5-7.5zm32.5 16.5h-32a7.5 7.5 0 1 0 0 15h32a7.5 7.5 0 1 0 0-15zm-56 0h-8a7.5 7.5 0 1 0 0 15h8a7.5 7.5 0 1 0 0-15zm0-33h40a7.5 7.5 0 1 0 0-15h-40a7.5 7.5 0 1 0 0 15zm80-15h-16a7.5 7.5 0 1 0 0 15h16a7.5 7.5 0 1 0 0-15zm-72-233c21.78 0 39.5-17.72 39.5-39.5S301.28 48 279.5 48 240 65.72 240 87.5s17.72 39.5 39.5 39.5zm0-64C293 63 304 74 304 87.5S293 112 279.5 112 255 101 255 87.5 266 63 279.5 63zm-104 32h48a7.5 7.5 0 1 0 0-15h-48a7.5 7.5 0 1 0 0 15zm160 0h48a7.5 7.5 0 1 0 0-15h-48a7.5 7.5 0 1 0 0 15zm-56 41a7.5 7.5 0 0 0-7.5 7.5v48a7.5 7.5 0 1 0 15 0v-48a7.5 7.5 0 0 0-7.5-7.5zm34.295-3.6l8.402 8.402c1.464 1.464 3.384 2.197 5.303 2.197s3.84-.732 5.303-2.196a7.5 7.5 0 0 0 0-10.607l-8.402-8.402a7.5 7.5 0 0 0-10.606 10.606zm-113.137 33.942c1.464 1.464 3.384 2.197 5.303 2.197a7.47 7.47 0 0 0 5.303-2.197l33.94-33.94a7.5 7.5 0 0 0-10.606-10.606l-33.94 33.94a7.5 7.5 0 0 0 0 10.606z"/></svg>