<?xml version="1.0" encoding="iso-8859-1"?>
<!-- Generator: Adobe Illustrator 17.1.0, SVG Export Plug-In . SVG Version: 6.00 Build 0)  -->
<!DOCTYPE svg PUBLIC "-//W3C//DTD SVG 1.1//EN" "http://www.w3.org/Graphics/SVG/1.1/DTD/svg11.dtd">
<svg version="1.1" id="Capa_1" xmlns="http://www.w3.org/2000/svg" xmlns:xlink="http://www.w3.org/1999/xlink" x="0px" y="0px"
	 viewBox="0 0 511 511" style="enable-background:new 0 0 511 511;" xml:space="preserve">
<g>
	<path d="M502.992,319.336C508.268,298.731,511,277.327,511,255.5c0-68.247-26.577-132.408-74.834-180.666
		c-25.944-25.944-56.49-45.61-89.79-58.26c-0.092-0.038-0.186-0.069-0.28-0.104C317.534,5.659,286.954,0,255.5,0
		C187.253,0,123.092,26.577,74.834,74.834C26.577,123.092,0,187.253,0,255.5s26.577,132.408,74.834,180.666
		C123.092,484.423,187.253,511,255.5,511s132.408-26.577,180.666-74.834c31.825-31.826,54.214-70.57,65.776-112.839
		C502.61,322.205,503,320.9,503,319.5C503,319.445,502.993,319.391,502.992,319.336z M76.834,94.503C77.664,94.819,78.56,95,79.5,95
		h72c4.142,0,7.5-3.358,7.5-7.5s-3.358-7.5-7.5-7.5H91.08c31.564-29.619,69.773-49.81,111.192-59.122l32.327,32.327
		c1.464,1.465,3.384,2.197,5.303,2.197c1.919,0,3.839-0.732,5.303-2.197c2.929-2.929,2.929-7.677,0-10.606L220.17,17.564
		C231.767,15.867,243.567,15,255.5,15c5.532,0,11.032,0.199,16.5,0.567V31.5c0,4.142,3.358,7.5,7.5,7.5s7.5-3.358,7.5-7.5V17.046
		c14.608,1.899,28.906,5.115,42.755,9.592l-15.961,15.96c-2.929,2.929-2.929,7.678,0,10.606c1.464,1.465,3.384,2.197,5.303,2.197
		s3.839-0.732,5.303-2.197l20.923-20.923C372.647,43.272,397.901,59.338,419.92,80H407.5c-4.142,0-7.5,3.358-7.5,7.5
		s3.358,7.5,7.5,7.5h24c0.94,0,1.836-0.181,2.666-0.497C474.131,138.749,496,195.442,496,255.5c0,19.282-2.27,38.212-6.653,56.5
		h-81.522c-7.828-23.508-12.077-50.095-12.828-79.963c1.901,1.078,3.945,2.585,6.023,4.63c7.486,7.368,11.667,17.942,11.473,29.011
		c-0.072,4.142,3.226,7.558,7.368,7.63c0.045,0.001,0.089,0.001,0.134,0.001c4.081,0,7.424-3.272,7.497-7.369
		c0.233-13.29-4.208-26.123-12.314-35.984c12.741,1.716,22.539,5.999,28.883,12.755c7.689,8.188,10.345,20.171,7.894,35.613
		c-0.649,4.091,2.141,7.934,6.231,8.583c0.398,0.063,0.794,0.094,1.185,0.094c3.624,0,6.812-2.633,7.398-6.325
		c3.17-19.975-0.9-36.653-11.773-48.232c-11.337-12.074-29.674-18.307-53.517-18.328c11.098-11.945,31.786-23.824,45.182-22.519
		c5.733,0.557,8.547,3.532,9.407,9.947c0.55,4.105,4.323,6.986,8.431,6.436c4.105-0.551,6.987-4.325,6.437-8.43
		c-1.785-13.306-10.104-21.647-22.823-22.883c-15.703-1.528-37.254,8.361-52.118,21.659c2.448-14.256,8.643-26.731,16.291-31.522
		c3.853-2.414,7.604-2.591,11.805-0.554c3.727,1.807,8.213,0.251,10.021-3.477c1.807-3.727,0.25-8.213-3.477-10.021
		c-8.788-4.261-18.133-3.785-26.313,1.339c-6.87,4.305-12.748,11.926-17.021,21.4c-4.155-8.951-9.824-16.2-16.516-20.576
		c-8.182-5.351-17.567-6.163-26.428-2.286c-3.794,1.66-5.525,6.083-3.865,9.877c1.66,3.796,6.083,5.525,9.877,3.865
		c4.244-1.857,8.237-1.498,12.205,1.097c7.501,4.906,13.462,16.503,15.983,29.963c-11.028-9.746-25.539-16.449-38.485-16.481
		c-0.033,0-0.066,0-0.099,0c-15.083,0-26.339,8.558-31.701,24.105c-1.35,3.916,0.729,8.185,4.646,9.535
		c3.914,1.351,8.185-0.729,9.535-4.645c3.247-9.417,8.978-13.995,17.522-13.995c0.019,0,0.04,0,0.06,0
		c12.369,0.031,26.437,9.006,34.501,18.952c-18.48,1.2-33.945,7.046-46.087,17.455c-12.857,11.021-21.37,26.886-24.619,45.879
		c-0.698,4.083,2.045,7.959,6.128,8.657c0.428,0.073,0.853,0.108,1.273,0.108c3.587,0,6.759-2.582,7.384-6.236
		c2.598-15.19,10.951-37.944,37.152-47.081c-5.737,8.543-8.729,18.882-8.535,29.948c0.072,4.097,3.416,7.368,7.497,7.368
		c0.044,0,0.089,0,0.134-0.001c4.142-0.073,7.44-3.489,7.368-7.631c-0.246-14.015,6.318-22.605,10.253-26.479
		c2.541-2.5,5.116-4.222,7.496-5.348c0.678,29.772,4.673,56.529,12.048,80.458H287v-96.499c0-4.143-3.358-7.5-7.5-7.5
		s-7.5,3.357-7.5,7.5V312h-17.026c0.011-0.166,0.025-0.331,0.025-0.5c0-11.854-6.636-21.439-18.205-26.299
		c-6.887-2.893-14.776-3.864-22.35-3.125c5.393-5.533,11.999-9.853,18.19-10.542c4.295-0.479,6.239,1.208,7.322,2.52
		c2.637,3.193,7.364,3.646,10.559,1.008c3.194-2.637,3.645-7.364,1.008-10.559c-4.958-6.004-12.253-8.803-20.551-7.876
		c-4.744,0.529-9.641,2.25-14.374,4.896c1.738-10.351,1.421-20.171-3.01-26.229c-3.512-4.8-8.982-6.869-15.412-5.828
		c-4.088,0.663-6.866,4.514-6.204,8.603s4.514,6.867,8.603,6.204c0.504-0.082,0.812-0.076,0.965-0.062
		c2.127,2.605,1.436,15.345-3.689,30.145c-5.985-12.745-16.181-24.691-26.336-28.645c-9.689-3.772-18.777-0.795-24.93,8.17
		c-2.344,3.415-1.476,8.084,1.939,10.428c3.415,2.345,8.084,1.475,10.428-1.939c2.47-3.599,4.48-3.709,7.121-2.681
		c7.741,3.014,16.024,14.83,19.897,25.112c-12.862-4.75-25.698-5.429-37.158-1.797c-12.617,4-22.618,13.033-28.16,25.437
		c-0.517,1.158-0.714,2.377-0.634,3.56H81.73c-1.056-1.257-2.153-2.483-3.281-3.683c17.061-9.4,30.408-23.211,39.706-41.11
		c9.976-19.204,15.549-43.717,16.635-72.955c0.454,0.377,0.91,0.78,1.365,1.228c2.422,2.384,8.035,9.095,7.846,19.888
		c-0.072,4.142,3.226,7.558,7.367,7.631c0.045,0,0.09,0.001,0.134,0.001c4.081,0,7.424-3.272,7.497-7.368
		c0.135-7.71-1.784-15.219-5.404-21.711c17.285,5.867,21.169,18.623,22.728,23.758c0.983,3.237,3.957,5.323,7.174,5.323
		c0.722,0,1.456-0.105,2.182-0.325c3.963-1.203,6.201-5.392,4.998-9.355c-7.974-26.267-28.806-35.085-48.84-37.001
		c8.094-7.427,20.813-14.232,29.086-13.429c2.818,0.274,4.564,1.279,5.144,5.605c0.55,4.105,4.323,6.987,8.431,6.437
		c4.105-0.551,6.987-4.325,6.437-8.431c-1.446-10.777-8.211-17.535-18.561-18.541c-10.325-1.003-23.957,4.446-34.815,12.457
		c2.34-7.129,6.2-13.68,11.265-16.992c3.624-2.37,6.114-1.737,7.671-1.056c3.797,1.66,8.218-0.07,9.877-3.865
		c1.66-3.795-0.07-8.217-3.865-9.877c-7.134-3.121-14.908-2.324-21.894,2.244c-3.995,2.613-7.589,6.358-10.618,10.855
		c-3.12-10.021-7.834-18.642-14.522-22.048c-5.3-2.698-11.118-2.075-16.383,1.754c-3.35,2.437-4.091,7.127-1.654,10.477
		c2.436,3.35,7.127,4.091,10.477,1.654c0.414-0.301,0.69-0.434,0.833-0.49c3.074,1.365,8.206,13.047,10.311,28.567
		c-11.094-8.674-25.584-14.734-36.429-13.681c-10.35,1.006-17.115,7.764-18.561,18.541c-0.55,4.105,2.331,7.88,6.437,8.431
		c4.11,0.551,7.88-2.331,8.431-6.437c0.58-4.326,2.326-5.332,5.144-5.605c8.226-0.796,20.839,5.919,28.938,13.291
		c-13.633,1.321-25.159,5.968-33.824,13.745c-9.409,8.444-14.66,19.951-15.186,33.277c-0.164,4.139,3.06,7.627,7.198,7.79
		c0.101,0.004,0.201,0.006,0.301,0.006c4.005,0,7.33-3.166,7.489-7.204c0.362-9.181,3.895-17.032,10.216-22.706
		c3.328-2.987,7.428-5.344,12.129-7.052c-3.578,6.466-5.473,13.93-5.338,21.594c0.072,4.097,3.416,7.368,7.497,7.368
		c0.044,0,0.089,0,0.134-0.001c4.141-0.073,7.439-3.489,7.367-7.631c-0.189-10.792,5.424-17.503,7.846-19.888
		c0.313-0.308,0.626-0.584,0.939-0.858c-2.055,52.37-19,85.851-51.638,102.17c-0.552,0.276-1.048,0.616-1.499,0.999
		c-14.629-10.941-32.528-17.598-50.415-17.775C15.419,271.922,15,263.743,15,255.5C15,195.442,36.869,138.749,76.834,94.503z
		 M456.205,388.127c-18.446-17.061-32.654-37.354-42.732-61.127h71.761C478.535,348.616,468.789,369.168,456.205,388.127z
		 M114.129,383.72c-8.135-8.068-10.369-17.47-13.12-29.129c-1.658-7.03-3.373-14.3-6.59-21.987
		c-0.796-1.902-1.672-3.771-2.622-5.604h86.08c-5.088,7.56-11.334,15.487-18.386,23.183
		C142.724,368.479,124.708,381.695,114.129,383.72z M152.984,312h-17.358c3.932-7.193,10.004-12.251,17.719-14.697
		c4.176-1.323,8.667-1.823,13.345-1.532C160.946,299.859,156.188,305.435,152.984,312z M170.892,312
		c4.292-4.755,9.156-6.791,11.502-7.541c3.136-1.002,5.868-1.123,7.759-0.776c-0.878,2.592-2.049,5.38-3.486,8.317H170.892z
		 M211.542,297.725c6.33-1.439,13.654-1.126,19.445,1.306c5.981,2.512,9.014,6.708,9.014,12.469c0,0.169,0.014,0.334,0.025,0.5
		h-11.854C223.461,306.298,217.66,301.589,211.542,297.725z M85.441,425.559c-35.956-35.955-59.109-81.293-67.206-130.49
		c25.896,1.213,52.343,19.43,62.346,43.327c2.74,6.544,4.31,13.201,5.828,19.638c3.185,13.502,6.478,27.463,20.227,39.175
		c0.017,0.014,0.034,0.026,0.051,0.04c0.053,0.044,0.108,0.085,0.162,0.128c8.217,6.857,19.288,7.808,29.069,8.64
		c7.498,0.638,15.25,1.297,16.761,4.602c7.707,16.857,20.152,18.286,30.152,19.434c7.24,0.831,13.493,1.548,19.687,7.054
		C212.704,446.16,224.567,455,247.5,455h142.419c-39.391,26.66-85.801,41-134.419,41C191.26,496,130.865,470.984,85.441,425.559z
		 M425.559,425.559c-5.175,5.175-10.553,10.07-16.099,14.708c-0.626-0.169-1.281-0.268-1.96-0.268h-160
		c-16.187,0-24.493-4.75-35.017-14.105c-9.738-8.656-19.832-9.814-27.942-10.745c-9.049-1.039-14.034-1.61-18.219-10.768
		c-5.153-11.271-17.892-12.355-29.132-13.312c-0.77-0.065-1.542-0.132-2.313-0.201c15.579-9.453,30.151-24.526,35.673-30.552
		c8.819-9.624,18.048-21.458,25.021-33.317h2.796c-0.511,2.092-1.301,4.294-2.497,6.559c-1.934,3.663-0.531,8.2,3.131,10.134
		c1.117,0.59,2.314,0.869,3.495,0.869c2.692,0,5.295-1.454,6.639-4c2.268-4.297,3.766-8.893,4.497-13.562h6.75
		c5.597,10.014,4.019,19.044,3.29,23.206c-0.714,4.08,2.014,7.967,6.094,8.682c0.438,0.076,0.873,0.113,1.303,0.113
		c3.575,0,6.741-2.564,7.379-6.207c1.724-9.842,0.872-18.382-1.713-25.794h42.753c0.005,0,0.01,0.001,0.015,0.001
		s0.01-0.001,0.015-0.001h117.706c11.211,28.857,27.914,53.206,50.234,73.435C440.791,409.224,433.494,417.625,425.559,425.559z"/>
	<path d="M287.5,351h40c4.142,0,7.5-3.358,7.5-7.5s-3.358-7.5-7.5-7.5h-40c-4.142,0-7.5,3.358-7.5,7.5S283.358,351,287.5,351z"/>
	<path d="M295,391.5c0-4.142-3.358-7.5-7.5-7.5h-64c-4.142,0-7.5,3.358-7.5,7.5s3.358,7.5,7.5,7.5h64
		C291.642,399,295,395.642,295,391.5z"/>
	<path d="M327.5,408h-32c-4.142,0-7.5,3.358-7.5,7.5s3.358,7.5,7.5,7.5h32c4.142,0,7.5-3.358,7.5-7.5S331.642,408,327.5,408z"/>
	<path d="M271.5,408h-8c-4.142,0-7.5,3.358-7.5,7.5s3.358,7.5,7.5,7.5h8c4.142,0,7.5-3.358,7.5-7.5S275.642,408,271.5,408z"/>
	<path d="M271.5,375h40c4.142,0,7.5-3.358,7.5-7.5s-3.358-7.5-7.5-7.5h-40c-4.142,0-7.5,3.358-7.5,7.5S267.358,375,271.5,375z"/>
	<path d="M351.5,360h-16c-4.142,0-7.5,3.358-7.5,7.5s3.358,7.5,7.5,7.5h16c4.142,0,7.5-3.358,7.5-7.5S355.642,360,351.5,360z"/>
	<path d="M279.5,127c21.78,0,39.5-17.72,39.5-39.5S301.28,48,279.5,48S240,65.72,240,87.5S257.72,127,279.5,127z M279.5,63
		c13.509,0,24.5,10.991,24.5,24.5S293.009,112,279.5,112S255,101.009,255,87.5S265.991,63,279.5,63z"/>
	<path d="M175.5,95h48c4.142,0,7.5-3.358,7.5-7.5s-3.358-7.5-7.5-7.5h-48c-4.142,0-7.5,3.358-7.5,7.5S171.358,95,175.5,95z"/>
	<path d="M335.5,95h48c4.142,0,7.5-3.358,7.5-7.5s-3.358-7.5-7.5-7.5h-48c-4.142,0-7.5,3.358-7.5,7.5S331.358,95,335.5,95z"/>
	<path d="M279.5,136c-4.142,0-7.5,3.358-7.5,7.5v48c0,4.142,3.358,7.5,7.5,7.5s7.5-3.358,7.5-7.5v-48
		C287,139.358,283.642,136,279.5,136z"/>
	<path d="M313.795,132.401l8.402,8.402c1.464,1.464,3.384,2.197,5.303,2.197c1.919,0,3.839-0.732,5.303-2.196
		c2.929-2.929,2.929-7.678,0-10.607l-8.402-8.402c-2.928-2.929-7.677-2.929-10.606,0
		C310.866,124.724,310.866,129.472,313.795,132.401z"/>
	<path d="M200.658,166.342c1.464,1.464,3.384,2.197,5.303,2.197s3.839-0.732,5.303-2.197l33.941-33.941
		c2.929-2.929,2.929-7.678,0-10.606c-2.929-2.93-7.678-2.93-10.606,0l-33.941,33.941
		C197.729,158.665,197.729,163.413,200.658,166.342z"/>
</g>
<g>
</g>
<g>
</g>
<g>
</g>
<g>
</g>
<g>
</g>
<g>
</g>
<g>
</g>
<g>
</g>
<g>
</g>
<g>
</g>
<g>
</g>
<g>
</g>
<g>
</g>
<g>
</g>
<g>
</g>
</svg>
