<?xml version="1.0" encoding="utf-8"?>
<!-- Svg Vector Icons : http://www.onlinewebfonts.com/icon -->
<!DOCTYPE svg PUBLIC "-//W3C//DTD SVG 1.1//EN" "http://www.w3.org/Graphics/SVG/1.1/DTD/svg11.dtd">
<svg version="1.1" xmlns="http://www.w3.org/2000/svg" xmlns:xlink="http://www.w3.org/1999/xlink" x="0px" y="0px" viewBox="0 0 1000 1000" enable-background="new 0 0 1000 1000" xml:space="preserve">
<metadata> Svg Vector Icons : http://www.onlinewebfonts.com/icon </metadata>
<g><g transform="translate(0.000000,511.000000) scale(0.100000,-0.100000)"><path d="M4851,4750c-151.5-404.8-591.1-1301.4-829.5-1696.2c-337.8-556.3-700.4-1028.2-1020.7-1326.2c-139.1-131.6-156.5-156.5-119.2-173.8c24.8-9.9,206.1-17.4,404.8-17.4c268.2,0,402.3,12.4,519.1,44.7c86.9,22.4,163.9,39.7,166.4,34.8c14.9-14.9-106.8-303-250.8-601c-350.2-715.3-809.6-1212-1423.1-1527.4l-159-82l72-44.7c181.3-111.8,380-156.5,715.2-156.5c178.8,0,387.4,14.9,466.9,32.3c79.5,17.4,151.5,24.8,161.4,14.9c19.9-19.9-74.5-198.7-245.9-459.5c-429.6-655.7-1137.5-1368.4-1820.4-1835.3l-218.6-149l94.4-39.7c417.2-176.3,1025.7-337.8,1500-399.8c240.9-29.8,437.1-37.2,881.7-27.3c817.1,17.4,1189.6,84.5,2694.6,476.8c973.5,253.3,1375.9,342.7,1904.9,432.1l404.8,64.6l-243.4,111.8c-802.2,367.6-1452.9,926.3-1914.8,1641.6c-84.4,126.7-151.5,240.9-151.5,250.8c0,9.9,59.6-9.9,131.6-42.2C6986.8-915,7674.8-852.9,7977.8-599.6l82,69.5l-183.8,64.6C7262.5-246.9,6527.4,441,6085.3,1213.4c-114.2,201.2-233.5,471.9-198.7,454.5c240.9-124.2,481.8-161.4,764.9-119.2c109.3,14.9,248.4,49.7,308,77l106.8,47.2l-146.5,111.8c-623.4,466.9-1311.3,1601.9-1817.9,2995.1l-116.7,320.4L4851,4750z"/><path d="M2826.9,3210.2c-74.5-228.5-330.3-789.8-501.7-1102.7c-300.5-546.4-675.5-1065.4-946.2-1308.8c-57.1-52.1-94.4-96.9-84.4-104.3c67.1-39.7,409.8-42.2,601-5c111.8,24.8,211.1,37.3,216.1,29.8c19.9-19.9-203.7-501.7-332.8-722.7c-166.4-278.2-524-630.8-809.6-797.2L750.7-927.4L877.3-982c240.9-104.3,543.9-121.7,851.8-52.1c52.2,9.9,91.9,12.4,91.9,2.5c0-44.7-253.3-437.1-412.3-640.8c-298-380-794.7-844.4-1174.7-1097.7L100-2859.6l72-29.8c136.6-57.1,601-203.7,702.8-221c91.9-14.9,119.2-5,305.5,114.2c653.2,414.8,1447.9,1174.7,1877.5,1795.6l129.1,186.3l-317.9,9.9c-384.9,14.9-591.1,77-941.3,285.6l-235.9,139.1L2062-390.9c447,228.5,630.8,357.6,876.7,613.4c248.3,260.8,516.6,673,655.6,1008.3l39.7,91.9l-293.1-2.5c-275.7-2.5-973.5,89.4-973.5,129.2c0,7.4,106.8,101.8,235.9,208.6c233.4,191.2,464.4,422.2,596,596l67.1,89.4l-91.9,216.1c-52.2,121.7-141.6,345.2-198.7,501.7l-104.3,283.1L2826.9,3210.2z"/><path d="M7185.5,3227.6c0-49.7-156.5-429.7-303-742.6l-126.7-268.2l104.3-106.8c59.6-62.1,218.5-181.3,352.6-268.2c134.1-84.4,243.4-163.9,245.9-173.8c0-27.3-412.2-245.9-541.4-285.6c-64.6-19.9-235.9-44.7-384.9-52.1l-265.7-17.4l139.1-211.1c208.6-312.9,350.2-481.8,625.9-750C7433.9-38.3,7794-249.4,8236-353.7c104.3-24.8,191.2-49.7,191.2-59.6c0-47.2-360.1-394.9-466.9-454.5c-193.7-104.3-476.8-168.9-767.4-173.8c-141.6-2.5-255.8-10-255.8-17.4c0-7.4,84.5-109.3,186.3-228.5c404.8-469.4,1025.7-916.4,1596.9-1149.9l134.1-54.6l201.2,49.7c111.8,24.8,347.7,72,524,101.8l320.4,54.6l-258.3,126.7c-141.6,69.5-355.2,193.7-474.4,280.6c-260.8,186.3-610.9,543.9-769.9,784.8c-166.4,250.8-171.3,265.7-39.7,201.2c91.9-47.2,149-54.6,404.8-54.6c258.3,0,315.4,10,427.2,59.6c69.5,29.8,146.5,77,168.9,101.8c37.3,42.2,32.3,47.2-79.5,84.4c-268.2,91.9-623.4,355.1-894.1,665.6c-223.5,255.8-457,623.4-516.6,809.6l-17.4,57.1l84.4-42.2c106.8-54.6,370-72,541.4-37.3c231,47.2,231,49.7-24.8,290.6c-285.6,273.2-548.8,663.1-807.1,1189.6c-168.9,350.2-360.1,809.6-397.4,963.6C7230.2,3264.8,7185.5,3289.7,7185.5,3227.6z"/><path d="M7371.8-3160.1c-506.7-121.7-499.2-119.2-543.9-248.4c-19.9-62.1-72-171.4-114.2-238.4c-89.4-144-89.4-146.5,124.2-211.1c188.7-59.6,640.7-57.1,794.7,0c59.6,24.8,134.1,67.1,163.9,94.4l54.6,52.2l-57.1,201.2c-96.9,352.7-119.2,414.8-146.5,412.3C7632.5-3098,7508.4-3127.8,7371.8-3160.1z"/><path d="M5322.9-3681.6c-144-32.3-375-77-511.6-99.3l-253.3-42.2l-42.2-156.5c-47.2-178.8-154-414.7-265.7-588.6c-44.7-69.5-67.1-129.1-54.6-141.6c42.2-39.7,322.9-119.2,529-151.5c255.8-37.3,640.8-17.4,809.6,42.2c149,52.2,307.9,146.5,327.8,198.7c12.4,32.3-223.5,904-260.8,968.6C5588.6-3634.4,5501.7-3644.3,5322.9-3681.6z"/><path d="M2367.5-3957.3c-47.2-91.9-89.4-173.8-94.4-183.8c-12.4-32.3,253.3-116.7,461.9-146.5c310.4-47.2,628.3,24.8,757.5,168.9c34.8,37.2,42.2,72,29.8,136.6l-17.4,86.9l-250.8,14.9c-139.1,9.9-365.1,34.7-499.2,54.6c-136.6,19.9-258.3,34.8-273.2,34.8C2466.8-3790.9,2414.6-3865.4,2367.5-3957.3z"/></g></g>
</svg>