<svg xmlns="http://www.w3.org/2000/svg" viewBox="0 0 1000 1000"  xmlns:v="https://vecta.io/nano"><path d="M485.1 36c-15.15 40.48-59.1 130.14-82.95 169.62-33.78 55.63-70.04 102.82-102.07 132.62-13.9 13.16-15.65 15.65-11.92 17.38 2.48 1 20.6 1.74 40.48 1.74 26.82 0 40.23-1.24 51.9-4.47 8.7-2.24 16.4-3.97 16.64-3.48 1.5 1.5-10.68 30.3-25.08 60.1-35.02 71.53-80.96 121.2-142.3 152.74l-15.9 8.2 7.2 4.47c18.13 11.18 38 15.65 71.52 15.65 17.88 0 38.74-1.5 46.7-3.23s15.15-2.48 16.14-1.5c2 2-7.45 19.87-24.6 45.95-42.96 65.57-113.75 136.84-182.04 183.53l-21.86 14.9 9.44 3.97c41.72 17.63 102.57 33.78 150 39.98 24.1 2.98 43.7 3.72 88.17 2.73 81.7-1.74 118.96-8.45 269.46-47.68 97.35-25.33 137.6-34.27 190.5-43.2l40.48-6.46-24.34-11.18c-80.22-36.76-145.3-92.63-191.48-164.16-8.44-12.67-15.15-24.1-15.15-25.08s5.96 1 13.16 4.22c41.5 19.14 110.3 12.93 140.6-12.4L806 564l-18.38-6.46c-61.35-21.86-134.86-90.65-179.07-167.9-11.42-20.12-23.35-47.2-19.87-45.45 24.1 12.42 48.18 16.14 76.5 11.92 10.93-1.5 24.84-4.97 30.8-7.7l10.68-4.72L692 332.52c-62.34-46.7-131.13-160.2-181.8-299.5L498.52.98 485.1 36zM282.7 189.98c-7.45 22.85-33.03 78.98-50.17 110.27-30.05 54.64-67.55 106.54-94.62 130.88-5.7 5.2-9.44 9.7-8.44 10.43 6.7 3.97 40.98 4.22 60.1.5 11.18-2.48 21.1-3.73 21.6-2.98 2 2-20.37 50.17-33.28 72.27-16.64 27.82-52.4 63.08-80.96 79.72l-21.86 12.67 12.66 5.46c24.1 10.43 54.4 12.17 85.18 5.2 5.22-1 9.2-1.24 9.2-.25 0 4.47-25.33 43.7-41.23 64.08-29.8 38-79.47 84.44-117.47 109.77L10 796.96l7.2 2.98c13.66 5.7 60.1 20.37 70.28 22.1 9.2 1.5 11.92.5 30.55-11.42 65.32-41.48 144.8-117.47 187.75-179.56l12.9-18.63-31.8-1c-38.5-1.5-59.1-7.7-94.13-28.56l-23.6-13.9 37.02-18.88c44.7-22.85 63.08-35.76 87.67-61.34 24.83-26.08 51.66-67.3 65.56-100.83l3.97-9.2-29.3.25c-27.57.25-97.35-8.94-97.35-12.92 0-.74 10.68-10.18 23.6-20.86 23.34-19.12 46.44-42.22 59.6-59.6l6.7-8.94-9.2-21.6c-5.22-12.17-14.16-34.52-19.87-50.17l-10.43-28.3-4.46 13.4zm435.85-1.74c0 4.97-15.65 42.97-30.3 74.26l-12.67 26.82L686 300c5.96 6.2 21.85 18.13 35.26 26.82 13.4 8.44 24.34 16.4 24.6 17.38 0 2.73-41.22 24.6-54.14 28.56-6.46 2-23.6 4.47-38.5 5.2l-26.57 1.74 13.9 21.1c20.86 31.3 35.02 48.18 62.6 75 40.23 39 76.24 60.12 120.44 70.55 10.43 2.48 19.12 4.97 19.12 5.96 0 4.72-36 39.5-46.7 45.45-19.37 10.43-47.68 16.9-76.74 17.38-14.16.25-25.58 1-25.58 1.74s8.45 10.93 18.63 22.85c40.48 46.94 102.57 91.64 159.7 115l13.4 5.46 20.12-4.97c11.18-2.48 34.77-7.2 52.4-10.18L990 739.6l-25.83-12.67c-14.16-6.95-35.52-19.37-47.44-28.06-26.08-18.63-61.1-54.4-77-78.48-16.64-25.08-17.13-26.57-3.97-20.12 9.2 4.72 14.9 5.46 40.48 5.46 25.83 0 31.54-1 42.72-5.96 6.95-2.98 14.65-7.7 16.9-10.18 3.73-4.22 3.23-4.72-7.95-8.44-26.82-9.2-62.34-35.5-89.4-66.56-22.35-25.58-45.7-62.34-51.66-80.96l-1.74-5.7 8.44 4.22c10.68 5.46 37 7.2 54.14 3.73 23.1-4.72 23.1-4.97-2.48-29.06-28.56-27.32-54.88-66.3-80.7-118.96-16.9-35.02-36-80.96-39.74-96.36-1.73-6.96-6.2-9.45-6.2-3.24zM737.18 827c-50.67 12.17-49.92 11.92-54.4 24.84-2 6.2-7.2 17.14-11.42 23.84-8.94 14.4-8.94 14.65 12.42 21.1 18.87 5.96 64.07 5.7 79.47 0 5.96-2.48 13.4-6.7 16.4-9.44l5.46-5.22-5.7-20.12c-9.7-35.27-11.92-41.48-14.65-41.23-1.5.01-13.9 3-27.57 6.22zM532.3 879.16c-14.4 3.23-37.5 7.7-51.16 9.93l-25.33 4.22-4.22 15.65c-4.72 17.88-15.4 41.47-26.57 58.86-4.47 6.95-6.7 12.9-5.46 14.16 4.22 3.97 32.3 11.92 52.9 15.15 25.58 3.73 64.08 1.74 80.96-4.22 14.9-5.22 30.8-14.65 32.78-19.87 1.24-3.23-22.35-90.4-26.08-96.86-1.25-1.74-9.94-.75-27.82 2.98zm-295.55 27.57l-9.44 18.38c-1.24 3.23 25.33 11.67 46.2 14.65 31.04 4.72 62.83-2.48 75.75-16.9 3.48-3.72 4.22-7.2 2.98-13.66l-1.74-8.7-25.08-1.5c-13.9-1-36.5-3.47-49.92-5.46-13.66-2-25.83-3.48-27.32-3.48s-6.7 7.45-11.42 16.64z"/></svg>