<?xml version="1.0" encoding="iso-8859-1"?>
<!-- Generator: Adobe Illustrator 21.0.2, SVG Export Plug-In . SVG Version: 6.00 Build 0)  -->
<svg xmlns="http://www.w3.org/2000/svg" xmlns:xlink="http://www.w3.org/1999/xlink" version="1.1" id="Layer_1" x="0px" y="0px" viewBox="0 0 40 40" style="enable-background:new 0 0 40 40;" xml:space="preserve">
<line style="fill:none;stroke:#4788C7;stroke-width:2;stroke-linecap:round;stroke-miterlimit:10;" x1="20" y1="30.857" x2="20" y2="38"/>
<g>
	<g>
		<path style="fill:#DFF0FE;" d="M20,32.482l-6.733,1.804l1.333-4.532L3.798,27.541c1.045-1.809,0.95-4.089-0.281-5.81l-1.629-2.277    l2.773-0.383c2.096-0.289,3.818-1.787,4.412-3.79l6.121,4.284L12.674,7.396c0.247,0.032,0.496,0.048,0.744,0.048    c2.019,0,3.922-1.074,4.966-2.803L20,1.967l1.616,2.674c1.044,1.729,2.947,2.803,4.966,2.803c0.248,0,0.497-0.016,0.744-0.048    l-2.521,12.171l6.121-4.284c0.594,2.002,2.316,3.501,4.412,3.79l2.773,0.383l-1.629,2.277c-1.23,1.721-1.326,4.001-0.281,5.81    L25.4,29.755l1.333,4.532L20,32.482z"/>
	</g>
	<g>
		<path style="fill:#4788C7;" d="M20,2.934L21.188,4.9c1.134,1.878,3.201,3.044,5.394,3.044c0.04,0,0.081,0,0.121-0.001    l-2.131,10.289l-0.511,2.466l2.064-1.444l4.555-3.188c0.8,1.863,2.53,3.217,4.591,3.501l1.954,0.269l-1.147,1.604    c-1.211,1.693-1.416,3.88-0.613,5.741l-9.63,1.974l-1.065,0.218l0.307,1.043l0.928,3.155l-5.743-1.539L20,31.965l-0.259,0.069    l-5.743,1.539l0.928-3.155l0.307-1.043l-1.065-0.218l-9.63-1.974c0.803-1.861,0.597-4.049-0.613-5.741l-1.147-1.604l1.954-0.269    c2.062-0.284,3.792-1.638,4.591-3.501l4.555,3.188l2.064,1.444l-0.511-2.466L13.297,7.942c0.04,0.001,0.081,0.001,0.121,0.001    c2.193,0,4.26-1.166,5.394-3.044L20,2.934 M20,1l-2.044,3.383c-0.973,1.61-2.708,2.561-4.538,2.561    c-0.357,0-0.717-0.036-1.075-0.11l-0.31-0.064l2.416,11.665l-5.695-3.986l-0.058,0.285c-0.415,2.021-2.059,3.561-4.103,3.843    L1,19.072l2.11,2.95c1.2,1.678,1.212,3.931,0.029,5.622l-0.167,0.238l10.993,2.253L12.536,35L20,33l7.464,2l-1.431-4.864    l10.993-2.253l-0.167-0.238c-1.183-1.691-1.171-3.944,0.029-5.622l2.11-2.95l-3.593-0.496c-2.044-0.282-3.688-1.822-4.103-3.843    l-0.058-0.285l-5.695,3.986l2.416-11.665l-0.31,0.064c-0.359,0.074-0.719,0.11-1.075,0.11c-1.831,0-3.565-0.95-4.538-2.561L20,1    L20,1z"/>
	</g>
</g>
<g>
</g>
</svg>
